<?xml version="1.0" standalone="no"?>
<!DOCTYPE svg PUBLIC "-//W3C//DTD SVG 20010904//EN"
 "http://www.w3.org/TR/2001/REC-SVG-20010904/DTD/svg10.dtd">
<svg version="1.0" xmlns="http://www.w3.org/2000/svg"
 width="215.000000pt" height="234.000000pt" viewBox="0 0 215.000000 234.000000"
 preserveAspectRatio="xMidYMid meet">

<g transform="translate(0.000000,234.000000) scale(0.100000,-0.100000)"
fill="#000000" stroke="none">
<path d="M967 2326 c-82 -30 -154 -98 -193 -179 -23 -47 -66 -62 -249 -82
-225 -26 -293 -50 -364 -131 l-41 -47 0 -857 0 -857 41 -46 c27 -31 66 -59
117 -84 l76 -38 725 0 726 0 73 39 c42 23 90 58 112 84 l40 45 0 857 0 857
-41 47 c-70 79 -144 106 -359 130 -74 9 -160 23 -191 32 -49 14 -58 21 -73 54
-25 56 -87 122 -147 155 -44 24 -68 29 -134 32 -52 2 -93 -2 -118 -11z m207
-149 c50 -39 65 -92 40 -143 -26 -53 -63 -76 -127 -82 -126 -10 -208 96 -148
194 42 69 163 85 235 31z m-624 -248 c16 -58 71 -114 133 -135 44 -15 97 -18
357 -19 168 -1 331 2 363 6 113 15 173 61 198 152 9 35 13 38 37 33 57 -14
152 -68 182 -104 17 -20 35 -53 40 -72 14 -50 13 -1423 -1 -1474 -14 -50 -82
-124 -139 -150 -44 -20 -60 -21 -624 -24 -671 -3 -652 -5 -741 81 -37 36 -57
65 -64 94 -8 30 -11 255 -9 760 l3 718 23 38 c13 20 39 49 58 63 33 26 138 73
161 74 7 0 17 -18 23 -41z"/>
<path d="M465 1565 c-32 -31 -32 -60 1 -90 l27 -25 566 1 c311 1 579 4 596 8
38 8 57 43 43 82 -6 16 -18 34 -28 39 -12 6 -240 10 -600 10 l-581 0 -24 -25z"/>
<path d="M492 1348 c-58 -16 -66 -82 -14 -116 24 -15 75 -17 603 -17 553 0
578 1 598 19 30 27 29 91 -1 108 -28 15 -1133 21 -1186 6z"/>
<path d="M478 1109 c-49 -28 -42 -97 12 -119 21 -9 179 -11 604 -8 526 3 577
4 592 20 23 22 22 73 -1 98 -18 20 -29 20 -604 20 -377 0 -592 -4 -603 -11z"/>
<path d="M532 881 c-47 -4 -67 -11 -78 -25 -20 -29 -17 -54 11 -81 l24 -25
581 0 c353 0 588 4 599 10 10 5 24 23 31 40 10 25 10 34 -3 53 -14 22 -25 24
-123 30 -129 8 -953 6 -1042 -2z"/>
<path d="M910 619 c-64 -46 -152 -140 -206 -221 l-46 -70 -30 54 c-17 29 -32
55 -34 57 -5 6 -144 -61 -144 -68 0 -3 26 -21 57 -40 31 -19 80 -54 110 -78
l54 -44 47 53 c64 73 127 132 192 181 30 23 56 41 56 42 1 0 -1 37 -5 83 l-6
84 -45 -33z"/>
</g>
</svg>
