<svg width="38" height="34" viewBox="0 0 38 34" fill="none" xmlns="http://www.w3.org/2000/svg">
    <g filter="url(#filter0_d_2970_8)">
        <rect x="4" width="30" height="26" rx="5" fill="white"/>
        <path d="M11.0937 18.5859L12.2109 17.4766C10.9877 16.3782 10.0265 15.0193 9.39844 13.5C10.9844 9.53906 15.3594 6.46875 19.5 6.46875C20.5655 6.4831 21.6214 6.67315 22.625 7.03125L23.8359 5.8125C22.4631 5.2319 20.9904 4.92409 19.5 4.90625C16.9535 5.00201 14.4909 5.84184 12.4166 7.32194C10.3422 8.80204 8.747 10.8575 7.82812 13.2344C7.76607 13.406 7.76607 13.594 7.82812 13.7656C8.52207 15.607 9.64096 17.2586 11.0937 18.5859Z" fill="black"/>
        <path d="M16.375 13.2891C16.4293 12.5404 16.7513 11.8363 17.2821 11.3055C17.8129 10.7748 18.517 10.4528 19.2656 10.3984L20.6797 8.97656C19.8873 8.76793 19.0541 8.77064 18.2631 8.98442C17.4721 9.19821 16.7509 9.61561 16.1716 10.195C15.5922 10.7744 15.1748 11.4955 14.961 12.2865C14.7472 13.0775 14.7445 13.9108 14.9531 14.7031L16.375 13.2891ZM31.1719 13.2344C30.276 10.9009 28.7172 8.88049 26.6875 7.42188L30.4375 3.66406L29.3359 2.5625L8.5625 23.3359L9.66406 24.4375L13.6484 20.4531C15.425 21.495 17.4407 22.0601 19.5 22.0938C22.0465 21.998 24.5091 21.1582 26.5834 19.6781C28.6578 18.198 30.253 16.1425 31.1719 13.7656C31.2339 13.594 31.2339 13.406 31.1719 13.2344ZM22.625 13.5C22.6217 14.047 22.4749 14.5835 22.1993 15.0559C21.9237 15.5284 21.5289 15.9202 21.0544 16.1922C20.5799 16.4643 20.0423 16.607 19.4953 16.6062C18.9483 16.6054 18.4112 16.461 17.9375 16.1875L22.1875 11.9375C22.4684 12.4107 22.6193 12.9497 22.625 13.5ZM19.5 20.5312C17.861 20.5026 16.253 20.0792 14.8125 19.2969L16.7969 17.3125C17.6995 17.9388 18.7934 18.2281 19.8876 18.1301C20.9818 18.032 22.0068 17.5527 22.7836 16.7758C23.5605 15.999 24.0398 14.974 24.1379 13.8798C24.236 12.7856 23.9466 11.6917 23.3203 10.7891L25.5625 8.54687C27.3551 9.77733 28.757 11.4964 29.6016 13.5C28.0156 17.4609 23.6406 20.5312 19.5 20.5312Z" fill="black"/>
    </g>
    <defs>
        <filter id="filter0_d_2970_8" x="0" y="0" width="38" height="34" filterUnits="userSpaceOnUse" color-interpolation-filters="sRGB">
            <feFlood flood-opacity="0" result="BackgroundImageFix"/>
            <feColorMatrix in="SourceAlpha" type="matrix" values="0 0 0 0 0 0 0 0 0 0 0 0 0 0 0 0 0 0 127 0" result="hardAlpha"/>
            <feOffset dy="4"/>
            <feGaussianBlur stdDeviation="2"/>
            <feComposite in2="hardAlpha" operator="out"/>
            <feColorMatrix type="matrix" values="0 0 0 0 0 0 0 0 0 0 0 0 0 0 0 0 0 0 0.25 0"/>
            <feBlend mode="normal" in2="BackgroundImageFix" result="effect1_dropShadow_2970_8"/>
            <feBlend mode="normal" in="SourceGraphic" in2="effect1_dropShadow_2970_8" result="shape"/>
        </filter>
    </defs>
</svg>