<svg width="38" height="34" viewBox="0 0 38 34" fill="none" xmlns="http://www.w3.org/2000/svg">
    <g filter="url(#filter0_d_1082_13)">
        <rect x="4" width="30" height="26" rx="5" fill="white"/>
        <path d="M13.375 22C12.7562 22 12.2267 21.7935 11.7865 21.3804C11.3462 20.9673 11.1257 20.4701 11.125 19.8889V6.16667H10V4.05556H15.625V3H22.375V4.05556H28V6.16667H26.875V19.8889C26.875 20.4694 26.6549 20.9666 26.2146 21.3804C25.7744 21.7942 25.2445 22.0007 24.625 22H13.375ZM24.625 6.16667H13.375V19.8889H24.625V6.16667ZM15.625 17.7778H17.875V8.27778H15.625V17.7778ZM20.125 17.7778H22.375V8.27778H20.125V17.7778Z" fill="black"/>
    </g>
    <defs>
        <filter id="filter0_d_1082_13" x="0" y="0" width="38" height="34" filterUnits="userSpaceOnUse" color-interpolation-filters="sRGB">
            <feFlood flood-opacity="0" result="BackgroundImageFix"/>
            <feColorMatrix in="SourceAlpha" type="matrix" values="0 0 0 0 0 0 0 0 0 0 0 0 0 0 0 0 0 0 127 0" result="hardAlpha"/>
            <feOffset dy="4"/>
            <feGaussianBlur stdDeviation="2"/>
            <feComposite in2="hardAlpha" operator="out"/>
            <feColorMatrix type="matrix" values="0 0 0 0 0 0 0 0 0 0 0 0 0 0 0 0 0 0 0.25 0"/>
            <feBlend mode="normal" in2="BackgroundImageFix" result="effect1_dropShadow_1082_13"/>
            <feBlend mode="normal" in="SourceGraphic" in2="effect1_dropShadow_1082_13" result="shape"/>
        </filter>
    </defs>
</svg>
