<svg width="36" height="34" viewBox="0 0 38 34" fill="none" xmlns="http://www.w3.org/2000/svg">
    <g filter="url(#filter0_d_2868_2)">
        <rect x="4" width="30" height="26" rx="5" fill="white"/>
        <path d="M12.75 7.58301H11.5C10.837 7.58301 10.2011 7.81128 9.73223 8.21761C9.26339 8.62394 9 9.17504 9 9.74967V19.4997C9 20.0743 9.26339 20.6254 9.73223 21.0317C10.2011 21.4381 10.837 21.6663 11.5 21.6663H22.75C23.413 21.6663 24.0489 21.4381 24.5178 21.0317C24.9866 20.6254 25.25 20.0743 25.25 19.4997V18.4163" stroke="black" stroke-width="2" stroke-linecap="round" stroke-linejoin="round"/>
        <path d="M24 5.41678L27.75 8.66678M29.4813 7.13387C29.9736 6.7072 30.2501 6.12851 30.2501 5.52512C30.2501 4.92172 29.9736 4.34303 29.4813 3.91637C28.9889 3.4897 28.3212 3.25 27.625 3.25C26.9288 3.25 26.2611 3.4897 25.7688 3.91637L15.25 13.0001V16.2501H19L29.4813 7.13387Z" stroke="black" stroke-width="2" stroke-linecap="round" stroke-linejoin="round"/>
    </g>
    <defs>
        <filter id="filter0_d_2868_2" x="0" y="0" width="38" height="34" filterUnits="userSpaceOnUse" color-interpolation-filters="sRGB">
            <feFlood flood-opacity="0" result="BackgroundImageFix"/>
            <feColorMatrix in="SourceAlpha" type="matrix" values="0 0 0 0 0 0 0 0 0 0 0 0 0 0 0 0 0 0 127 0" result="hardAlpha"/>
            <feOffset dy="4"/>
            <feGaussianBlur stdDeviation="2"/>
            <feComposite in2="hardAlpha" operator="out"/>
            <feColorMatrix type="matrix" values="0 0 0 0 0 0 0 0 0 0 0 0 0 0 0 0 0 0 0.25 0"/>
            <feBlend mode="normal" in2="BackgroundImageFix" result="effect1_dropShadow_2868_2"/>
            <feBlend mode="normal" in="SourceGraphic" in2="effect1_dropShadow_2868_2" result="shape"/>
        </filter>
    </defs>
</svg>