<svg width="38" height="34" viewBox="0 0 38 34" fill="none" xmlns="http://www.w3.org/2000/svg">
<g filter="url(#filter0_d_280_335)">
<rect x="4" width="30" height="26" rx="5" fill="white"/>
<path fill-rule="evenodd" clip-rule="evenodd" d="M12.832 13.3053C12.2893 14.119 11.9998 15.0752 12 16.0533V16.7503C12 17.0155 11.8946 17.2699 11.7071 17.4574C11.5196 17.645 11.2652 17.7503 11 17.7503C10.7348 17.7503 10.4804 17.645 10.2929 17.4574C10.1054 17.2699 10 17.0155 10 16.7503V16.0533C10 14.6803 10.406 13.3383 11.168 12.1953L12.832 13.3053Z" fill="black"/>
<path fill-rule="evenodd" clip-rule="evenodd" d="M14.803 12.25C14.011 12.25 13.271 12.646 12.832 13.305L11.168 12.195C11.5671 11.5967 12.1077 11.1062 12.7418 10.7669C13.3758 10.4276 14.0839 10.2501 14.803 10.25H15C15.2652 10.25 15.5196 10.3554 15.7071 10.5429C15.8947 10.7304 16 10.9848 16 11.25C16 11.5152 15.8947 11.7696 15.7071 11.9571C15.5196 12.1446 15.2652 12.25 15 12.25H14.803ZM17.014 13.305C17.557 14.118 17.846 15.075 17.846 16.053V16.75C17.846 17.0152 17.9514 17.2696 18.1389 17.4571C18.3265 17.6446 18.5808 17.75 18.846 17.75C19.1112 17.75 19.3656 17.6446 19.5531 17.4571C19.7407 17.2696 19.846 17.0152 19.846 16.75V16.053C19.8458 14.6799 19.4394 13.3376 18.678 12.195L17.014 13.305Z" fill="black"/>
<path fill-rule="evenodd" clip-rule="evenodd" d="M15.043 12.25C15.835 12.25 16.575 12.646 17.014 13.305L18.678 12.195C18.2789 11.5967 17.7384 11.1062 17.1043 10.7669C16.4702 10.4276 15.7622 10.2501 15.043 10.25H14.846C14.5808 10.25 14.3264 10.3554 14.1389 10.5429C13.9514 10.7304 13.846 10.9848 13.846 11.25C13.846 11.5152 13.9514 11.7696 14.1389 11.9571C14.3264 12.1446 14.5808 12.25 14.846 12.25H15.043Z" fill="black"/>
<path fill-rule="evenodd" clip-rule="evenodd" d="M14.846 9.5C15.1775 9.5 15.4955 9.3683 15.7299 9.13388C15.9643 8.89946 16.096 8.58152 16.096 8.25C16.096 7.91848 15.9643 7.60054 15.7299 7.36612C15.4955 7.1317 15.1775 7 14.846 7C14.5145 7 14.1965 7.1317 13.9621 7.36612C13.7277 7.60054 13.596 7.91848 13.596 8.25C13.596 8.58152 13.7277 8.89946 13.9621 9.13388C14.1965 9.3683 14.5145 9.5 14.846 9.5ZM14.846 11.5C15.708 11.5 16.5346 11.1576 17.1441 10.5481C17.7536 9.9386 18.096 9.11195 18.096 8.25C18.096 7.38805 17.7536 6.5614 17.1441 5.9519C16.5346 5.34241 15.708 5 14.846 5C13.9841 5 13.1574 5.34241 12.5479 5.9519C11.9384 6.5614 11.596 7.38805 11.596 8.25C11.596 9.11195 11.9384 9.9386 12.5479 10.5481C13.1574 11.1576 13.9841 11.5 14.846 11.5ZM20.082 16.555C19.5393 17.3687 19.2498 18.3249 19.25 19.303V20C19.25 20.2652 19.1447 20.5196 18.9571 20.7071C18.7696 20.8946 18.5152 21 18.25 21C17.9848 21 17.7304 20.8946 17.5429 20.7071C17.3554 20.5196 17.25 20.2652 17.25 20V19.303C17.25 17.93 17.656 16.588 18.418 15.445L20.082 16.555ZM22.053 15.5C21.261 15.5 20.521 15.896 20.082 16.555L18.418 15.445C18.8171 14.8467 19.3576 14.3562 19.9917 14.0169C20.6258 13.6776 21.3338 13.5001 22.053 13.5H22.25C22.5152 13.5 22.7696 13.6054 22.9571 13.7929C23.1447 13.9804 23.25 14.2348 23.25 14.5C23.25 14.7652 23.1447 15.0196 22.9571 15.2071C22.7696 15.3946 22.5152 15.5 22.25 15.5H22.053ZM24.264 16.555C24.807 17.368 25.096 18.325 25.096 19.303V20C25.096 20.2652 25.2014 20.5196 25.3889 20.7071C25.5764 20.8946 25.8308 21 26.096 21C26.3612 21 26.6156 20.8946 26.8031 20.7071C26.9907 20.5196 27.096 20.2652 27.096 20V19.303C27.0957 17.9299 26.6894 16.5876 25.928 15.445L24.264 16.555Z" fill="black"/>
<path fill-rule="evenodd" clip-rule="evenodd" d="M22.293 15.5C23.085 15.5 23.825 15.896 24.264 16.555L25.928 15.445C25.5289 14.8467 24.9884 14.3562 24.3543 14.0169C23.7202 13.6776 23.0122 13.5001 22.293 13.5H22.096C21.8308 13.5 21.5764 13.6054 21.3889 13.7929C21.2014 13.9804 21.096 14.2348 21.096 14.5C21.096 14.7652 21.2014 15.0196 21.3889 15.2071C21.5764 15.3946 21.8308 15.5 22.096 15.5H22.293Z" fill="black"/>
<path fill-rule="evenodd" clip-rule="evenodd" d="M22.096 12.75C22.4275 12.75 22.7455 12.6183 22.9799 12.3839C23.2143 12.1495 23.346 11.8315 23.346 11.5C23.346 11.1685 23.2143 10.8505 22.9799 10.6161C22.7455 10.3817 22.4275 10.25 22.096 10.25C21.7645 10.25 21.4465 10.3817 21.2121 10.6161C20.9777 10.8505 20.846 11.1685 20.846 11.5C20.846 11.8315 20.9777 12.1495 21.2121 12.3839C21.4465 12.6183 21.7645 12.75 22.096 12.75ZM22.096 14.75C22.958 14.75 23.7846 14.4076 24.3941 13.7981C25.0036 13.1886 25.346 12.362 25.346 11.5C25.346 10.638 25.0036 9.8114 24.3941 9.2019C23.7846 8.59241 22.958 8.25 22.096 8.25C21.2341 8.25 20.4074 8.59241 19.7979 9.2019C19.1884 9.8114 18.846 10.638 18.846 11.5C18.846 12.362 19.1884 13.1886 19.7979 13.7981C20.4074 14.4076 21.2341 14.75 22.096 14.75Z" fill="black"/>
</g>
<defs>
<filter id="filter0_d_280_335" x="0" y="0" width="38" height="34" filterUnits="userSpaceOnUse" color-interpolation-filters="sRGB">
<feFlood flood-opacity="0" result="BackgroundImageFix"/>
<feColorMatrix in="SourceAlpha" type="matrix" values="0 0 0 0 0 0 0 0 0 0 0 0 0 0 0 0 0 0 127 0" result="hardAlpha"/>
<feOffset dy="4"/>
<feGaussianBlur stdDeviation="2"/>
<feComposite in2="hardAlpha" operator="out"/>
<feColorMatrix type="matrix" values="0 0 0 0 0 0 0 0 0 0 0 0 0 0 0 0 0 0 0.25 0"/>
<feBlend mode="normal" in2="BackgroundImageFix" result="effect1_dropShadow_280_335"/>
<feBlend mode="normal" in="SourceGraphic" in2="effect1_dropShadow_280_335" result="shape"/>
</filter>
</defs>
</svg>
