<svg width="38" height="34" viewBox="0 0 38 34" fill="none" xmlns="http://www.w3.org/2000/svg">
    <g filter="url(#filter0_d_2971_18)">
    <rect x="4" width="30" height="26" rx="5" fill="white"/>
    <path d="M28.544 12.045C28.848 12.471 29 12.685 29 13C29 13.316 28.848 13.529 28.544 13.955C27.178 15.871 23.689 20 19 20C14.31 20 10.822 15.87 9.456 13.955C9.152 13.529 9 13.315 9 13C9 12.684 9.152 12.471 9.456 12.045C10.822 10.129 14.311 6 19 6C23.69 6 27.178 10.13 28.544 12.045Z" stroke="black" stroke-width="1.5" stroke-linecap="round" stroke-linejoin="round"/>
    <path d="M22 13C22 12.2044 21.6839 11.4413 21.1213 10.8787C20.5587 10.3161 19.7956 10 19 10C18.2044 10 17.4413 10.3161 16.8787 10.8787C16.3161 11.4413 16 12.2044 16 13C16 13.7956 16.3161 14.5587 16.8787 15.1213C17.4413 15.6839 18.2044 16 19 16C19.7956 16 20.5587 15.6839 21.1213 15.1213C21.6839 14.5587 22 13.7956 22 13Z" stroke="black" stroke-width="1.5" stroke-linecap="round" stroke-linejoin="round"/>
    </g>
    <defs>
    <filter id="filter0_d_2971_18" x="0" y="0" width="38" height="34" filterUnits="userSpaceOnUse" color-interpolation-filters="sRGB">
    <feFlood flood-opacity="0" result="BackgroundImageFix"/>
    <feColorMatrix in="SourceAlpha" type="matrix" values="0 0 0 0 0 0 0 0 0 0 0 0 0 0 0 0 0 0 127 0" result="hardAlpha"/>
    <feOffset dy="4"/>
    <feGaussianBlur stdDeviation="2"/>
    <feComposite in2="hardAlpha" operator="out"/>
    <feColorMatrix type="matrix" values="0 0 0 0 0 0 0 0 0 0 0 0 0 0 0 0 0 0 0.25 0"/>
    <feBlend mode="normal" in2="BackgroundImageFix" result="effect1_dropShadow_2971_18"/>
    <feBlend mode="normal" in="SourceGraphic" in2="effect1_dropShadow_2971_18" result="shape"/>
    </filter>
    </defs>
</svg>