<svg width="31" height="21" viewBox="0 0 31 21" fill="none" xmlns="http://www.w3.org/2000/svg">
<path d="M19.9054 15.5152C20.7993 14.6964 21.4122 13.6471 21.666 12.5011C21.9197 11.3551 21.8028 10.1643 21.3302 9.08073C20.8575 7.99713 20.0505 7.0698 19.0121 6.41703C17.9738 5.76427 16.7511 5.41565 15.5 5.41565C14.2489 5.41565 13.0262 5.76427 11.9879 6.41703C10.9495 7.0698 10.1425 7.99713 9.66983 9.08073C9.19717 10.1643 9.08026 11.3551 9.33402 12.5011C9.58778 13.6471 10.2007 14.6964 11.0946 15.5152C9.58116 16.2679 8.32284 17.4015 7.4618 18.7879C7.27741 19.0996 7.23118 19.4666 7.33306 19.8098C7.43493 20.1531 7.67677 20.4452 8.00653 20.6233C8.3363 20.8015 8.72764 20.8514 9.09636 20.7624C9.46508 20.6734 9.78171 20.4525 9.97813 20.1473C10.5459 19.2498 11.3539 18.5062 12.3223 17.9896C13.2908 17.4731 14.3864 17.2014 15.5012 17.2014C16.616 17.2014 17.7116 17.4731 18.6801 17.9896C19.6486 18.5062 20.4565 19.2498 21.0243 20.1473C21.1178 20.3053 21.244 20.4443 21.3955 20.5562C21.5471 20.6681 21.7209 20.7506 21.907 20.7989C22.093 20.8472 22.2874 20.8604 22.479 20.8376C22.6705 20.8148 22.8552 20.7566 23.0224 20.6663C23.1896 20.576 23.3359 20.4554 23.4527 20.3116C23.5695 20.1678 23.6545 20.0037 23.7027 19.8288C23.751 19.6539 23.7615 19.4718 23.7337 19.2931C23.7058 19.1144 23.6402 18.9427 23.5406 18.7879C22.6789 17.4012 21.4197 16.2676 19.9054 15.5152ZM12.1094 11.3125C12.1094 10.6852 12.3082 10.0719 12.6808 9.5503C13.0534 9.02869 13.5829 8.62214 14.2025 8.38207C14.822 8.142 15.5038 8.07919 16.1615 8.20157C16.8192 8.32396 17.4233 8.62605 17.8975 9.06965C18.3717 9.51324 18.6947 10.0784 18.8255 10.6937C18.9563 11.309 18.8892 11.9467 18.6325 12.5263C18.3759 13.1059 17.9413 13.6013 17.3837 13.9498C16.8261 14.2984 16.1706 14.4844 15.5 14.4844C14.6008 14.4844 13.7383 14.1502 13.1025 13.5554C12.4666 12.9605 12.1094 12.1537 12.1094 11.3125ZM29.9356 12.3989C29.783 12.5062 29.6092 12.5844 29.4243 12.6289C29.2394 12.6733 29.0469 12.6833 28.8578 12.6582C28.6688 12.633 28.4869 12.5733 28.3225 12.4823C28.1582 12.3914 28.0146 12.271 27.9 12.1281C26.8913 10.8718 25.4963 9.90895 24.3483 9.67672C24.0431 9.61496 23.7672 9.46285 23.5616 9.24292C23.356 9.02299 23.2317 8.74696 23.2069 8.45572C23.1822 8.16448 23.2584 7.87354 23.4243 7.626C23.5902 7.37847 23.8369 7.18752 24.1279 7.08145C24.4902 6.94915 24.8131 6.73717 25.0694 6.46344C25.3256 6.18971 25.5075 5.86229 25.5999 5.50886C25.6922 5.15544 25.6922 4.7864 25.5999 4.43298C25.5075 4.07955 25.3256 3.75213 25.0693 3.4784C24.8131 3.20467 24.4902 2.9927 24.1279 2.86039C23.7656 2.72809 23.3746 2.67936 22.9879 2.71832C22.6012 2.75728 22.2303 2.88279 21.9064 3.08423C21.5825 3.28566 21.3153 3.5571 21.1272 3.87559C21.0381 4.03698 20.9152 4.18002 20.7659 4.29625C20.6167 4.41248 20.444 4.49953 20.2582 4.55228C20.0723 4.60502 19.8771 4.62238 19.6839 4.60333C19.4908 4.58427 19.3037 4.5292 19.1337 4.44135C18.9637 4.35351 18.8143 4.23468 18.6942 4.09188C18.5741 3.94909 18.4859 3.78523 18.4347 3.60998C18.3834 3.43474 18.3703 3.25166 18.396 3.07158C18.4217 2.8915 18.4857 2.71807 18.5843 2.56153C18.9438 1.96674 19.4303 1.44747 20.0134 1.03597C20.5966 0.624473 21.2639 0.329534 21.974 0.169476C22.6842 0.00941824 23.4219 -0.0123399 24.1414 0.105553C24.8608 0.223446 25.5467 0.478473 26.1564 0.85479C26.7661 1.23111 27.2866 1.72068 27.6855 2.29309C28.0844 2.86551 28.3532 3.50854 28.4753 4.18225C28.5974 4.85595 28.57 5.54594 28.395 6.20935C28.22 6.87277 27.9011 7.49543 27.458 8.03867C28.5242 8.70312 29.4602 9.53428 30.225 10.4957C30.4564 10.784 30.5559 11.1465 30.5016 11.5034C30.4473 11.8603 30.2437 12.1824 29.9356 12.3989ZM6.65168 9.68012C5.50371 9.91235 4.10871 10.8752 3.1 12.1327C2.86796 12.4209 2.52302 12.6112 2.14104 12.6615C1.75907 12.7119 1.37136 12.6182 1.06321 12.4011C0.755052 12.1841 0.551697 11.8614 0.497875 11.504C0.444054 11.1467 0.544175 10.784 0.776214 10.4957C1.54138 9.53458 2.47732 8.70348 3.54321 8.03867C3.10013 7.49543 2.78118 6.87277 2.60618 6.20935C2.43118 5.54594 2.40386 4.85595 2.52593 4.18225C2.64799 3.50854 2.91683 2.86551 3.31574 2.29309C3.71465 1.72068 4.23511 1.23111 4.8448 0.85479C5.45448 0.478473 6.14037 0.223446 6.85986 0.105553C7.57934 -0.0123399 8.31706 0.00941824 9.02718 0.169476C9.73729 0.329534 10.4046 0.624473 10.9878 1.03597C11.5709 1.44747 12.0574 1.96674 12.417 2.56153C12.5155 2.71807 12.5795 2.8915 12.6052 3.07158C12.6309 3.25166 12.6178 3.43474 12.5666 3.60998C12.5153 3.78523 12.4271 3.94909 12.307 4.09188C12.1869 4.23468 12.0375 4.35351 11.8675 4.44135C11.6975 4.5292 11.5104 4.58427 11.3173 4.60333C11.1241 4.62238 10.9289 4.60502 10.743 4.55228C10.5572 4.49953 10.3845 4.41248 10.2353 4.29625C10.086 4.18002 9.96316 4.03698 9.87399 3.87559C9.68596 3.5571 9.41871 3.28566 9.09483 3.08423C8.77096 2.88279 8.39999 2.75728 8.0133 2.71832C7.62661 2.67936 7.23558 2.72809 6.87329 2.86039C6.51099 2.9927 6.18808 3.20467 5.93187 3.4784C5.67566 3.75213 5.49368 4.07955 5.40134 4.43298C5.30899 4.7864 5.30899 5.15544 5.40134 5.50886C5.49368 5.86229 5.67566 6.18971 5.93187 6.46344C6.18808 6.73717 6.51099 6.94915 6.87328 7.08145C7.16428 7.18752 7.411 7.37847 7.57689 7.626C7.74278 7.87354 7.81901 8.16448 7.79427 8.45572C7.76954 8.74696 7.64517 9.02299 7.43958 9.24292C7.234 9.46285 6.95814 9.61496 6.65289 9.67672L6.65168 9.68012Z" fill="#F8F8F8"/>
</svg>
