<svg width="35" height="35" viewBox="0 0 35 35" fill="none" xmlns="http://www.w3.org/2000/svg">
<path d="M28.4375 21.875H21.875V19.6875H28.4375V21.875ZM32.8125 30.625H26.25V28.4375H32.8125V30.625ZM30.625 26.25H24.0625V24.0625H30.625V26.25Z" fill="white"/>
<path d="M18.597 21.875C18.5888 20.9522 18.3424 20.0472 17.8818 19.2476C17.4211 18.4479 16.7618 17.7808 15.9677 17.3108L24.0625 3.28125L22.1703 2.1875L13.883 16.5441C12.8659 16.317 11.8081 16.3484 10.8063 16.6356C9.80454 16.9228 8.89073 17.4565 8.14844 18.188C4.05344 22.1375 4.37063 31.3709 4.38595 31.7625C4.39725 32.0449 4.51746 32.312 4.72136 32.5078C4.92527 32.7035 5.19704 32.8127 5.4797 32.8125H21.8761C22.1057 32.8125 22.3294 32.7403 22.5156 32.606C22.7019 32.4718 22.8411 32.2824 22.9137 32.0646C22.9863 31.8468 22.9885 31.6117 22.9201 31.3926C22.8517 31.1735 22.716 30.9815 22.5324 30.8438C18.6605 27.9388 18.597 21.9341 18.597 21.875ZM13.0484 18.5905C13.9239 18.6001 14.7618 18.9469 15.3881 19.5586C16.0143 20.1704 16.3806 21.0001 16.4106 21.875C16.4106 21.9166 16.4128 22.1025 16.4292 22.388L9.9761 19.518C10.4012 19.1674 10.8917 18.9049 11.4191 18.7457C11.9466 18.5865 12.5004 18.5337 13.0484 18.5905ZM16.8984 30.625C16.0242 29.7348 15.4669 28.5818 15.3125 27.3438H13.125C13.2033 28.5078 13.567 29.6347 14.1838 30.625H11.7524C11.3024 29.2056 11.0287 27.7362 10.9375 26.25H8.75001C8.82012 27.7318 9.06424 29.2002 9.47735 30.625H6.56251C6.59641 28.6169 6.87969 24.1806 8.53454 21.2702L16.7738 24.9342C17.1688 26.99 18.0128 28.9332 19.2456 30.625H16.8984Z" fill="white"/>
</svg>
