<svg width="21" height="25" viewBox="0 0 21 25" fill="none" xmlns="http://www.w3.org/2000/svg">
<path d="M10.5 0.416672C11.5277 0.416672 12.5134 0.79859 13.2401 1.47841C13.9668 2.15823 14.375 3.08026 14.375 4.04167C14.375 5.00308 13.9668 5.92511 13.2401 6.60493C12.5134 7.28475 11.5277 7.66667 10.5 7.66667C9.47231 7.66667 8.48669 7.28475 7.75999 6.60493C7.03328 5.92511 6.62503 5.00308 6.62503 4.04167C6.62503 3.08026 7.03328 2.15823 7.75999 1.47841C8.48669 0.79859 9.47231 0.416672 10.5 0.416672ZM20.8334 19.75L18.25 13.1767C17.7979 11.9804 17.3975 10.9413 15.6667 10.0833C13.8842 9.2375 12.5925 8.875 10.5 8.875C8.39461 8.875 7.11586 9.2375 5.33336 10.0833C3.60253 10.9413 3.20211 11.9804 2.75003 13.1767L0.166693 19.75C-0.246641 21.3813 3.21503 22.6983 5.47544 23.6046V20.9583C5.47544 19.8104 6.58628 19.0008 8.80794 18.5054C9.01461 18.4571 9.20836 18.4329 9.36336 18.4088C8.66586 17.4179 8.38169 16.5358 8.35586 16.4633L10.6421 15.7383C10.655 15.7625 11.3138 17.6596 12.8767 18.6142C13.1479 18.6988 13.4192 18.7954 13.6775 18.9042C14.6721 19.315 15.2663 19.8467 15.46 20.4871C13.7292 21.1275 12.0759 21.4538 10.5 21.4538L9.20836 21.3329V24.5108L10.5 24.5833C12.2696 24.5833 13.9488 24.245 15.5246 23.6046C17.785 22.6983 21.1563 21.1154 20.8334 19.75ZM15.0209 18.5417C14.507 18.5417 14.0142 18.3507 13.6508 18.0108C13.2875 17.6709 13.0834 17.2099 13.0834 16.7292C13.0834 16.2485 13.2875 15.7874 13.6508 15.4475C14.0142 15.1076 14.507 14.9167 15.0209 14.9167C15.5347 14.9167 16.0275 15.1076 16.3909 15.4475C16.7542 15.7874 16.9584 16.2485 16.9584 16.7292C16.9584 17.2099 16.7542 17.6709 16.3909 18.0108C16.0275 18.3507 15.5347 18.5417 15.0209 18.5417Z" fill="white"/>
</svg>
