<svg width="145" height="134" viewBox="0 0 145 134" fill="none" xmlns="http://www.w3.org/2000/svg">
<g opacity="0.15">
<path d="M140.469 78.524C140.469 74.594 138.446 70.6389 134.549 68.541C135.435 64.4603 136.085 59.7389 136.085 54.4417C136.083 31.4083 118.277 4.1875 72.5 4.1875C26.7185 4.1875 8.9175 31.4083 8.9175 54.4417C8.9175 59.7368 9.56773 64.4561 10.4536 68.5368C6.54992 70.6348 4.53125 74.594 4.53125 78.524C4.53125 82.9251 7.08008 87.3408 11.9557 89.1561C6.63828 98.4146 4.39305 111.712 9.94836 121.094C12.3522 125.154 34.1883 138.093 41.4405 121.81C49.7327 125.445 60.0391 127.731 72.5 127.731C84.9609 127.731 95.2627 125.445 103.555 121.81C110.812 138.093 132.646 125.156 135.052 121.094C140.6 111.714 138.357 98.4188 133.038 89.1561C137.915 87.3408 140.469 82.9272 140.469 78.524ZM72.5227 12.5625C106.052 12.5625 128.411 29.3146 128.411 50.2542C128.411 50.2542 121.703 18.8458 72.5227 18.8458C23.3427 18.8458 14.3958 50.2542 14.3958 50.2542C14.3958 29.3146 38.9891 12.5625 72.5227 12.5625ZM125.858 85.8521V87.9459C125.858 102.73 109.303 123.544 72.5 123.544C35.6927 123.544 19.1377 102.73 19.1377 87.9459V85.8521H16.9469C11.3984 85.8521 8.91523 82.1713 8.91523 78.524C8.91523 74.8767 11.3984 71.1959 16.9469 71.1959H17.3638L17.7534 71.0493C17.9619 70.9718 36.8436 63.5809 36.6397 41.9106C58.1065 61.1187 113.981 64.3619 125.858 64.8413V71.198H128.053C133.597 71.198 136.085 74.8788 136.085 78.5261C136.085 82.1734 133.597 85.8542 128.053 85.8542L125.858 85.8521Z" fill="black"/>
<path d="M100.82 86.8994C107.077 86.8994 112.148 82.2124 112.148 76.4307C112.148 70.6489 107.077 65.9619 100.82 65.9619C94.564 65.9619 89.4922 70.6489 89.4922 76.4307C89.4922 82.2124 94.564 86.8994 100.82 86.8994Z" fill="black"/>
<path d="M44.1797 86.8994C50.436 86.8994 55.5078 82.2124 55.5078 76.4307C55.5078 70.6489 50.436 65.9619 44.1797 65.9619C37.9233 65.9619 32.8516 70.6489 32.8516 76.4307C32.8516 82.2124 37.9233 86.8994 44.1797 86.8994Z" fill="black"/>
<path d="M90.829 100.774C79.0137 108.312 65.9071 108.266 54.1666 100.774C52.7597 99.8699 51.4841 101.432 52.4402 102.881C56.0108 108.266 63.2427 113.071 72.4955 113.071C81.7529 113.071 88.9825 108.266 92.5554 102.881C93.5183 101.432 92.245 99.8699 90.829 100.774Z" fill="black"/>
</g>
</svg>
