<svg width="146" height="137" viewBox="0 0 146 137" fill="none" xmlns="http://www.w3.org/2000/svg">
<g opacity="0.15">
<path d="M134.179 68.5685C134.539 65.0515 134.815 60.5112 134.815 54.8128C134.817 36.5876 123.776 4.28125 73 4.28125C22.2239 4.28125 11.1827 36.5876 11.1827 54.8128C11.1827 60.5112 11.4587 65.0515 11.8146 68.5685C7.03537 70.7048 4.5625 75.5855 4.5625 80.4147C4.5625 83.8868 5.76928 87.1491 7.957 89.5937C10.0421 91.927 12.8457 93.3527 16.1421 93.7744C17.7732 118.877 50.3221 132.719 73 132.719C95.6733 132.719 128.227 118.877 129.853 93.7765C133.154 93.3548 135.958 91.9291 138.043 89.598C140.235 87.1491 141.438 83.8868 141.438 80.4147C141.438 75.5855 138.965 70.7048 134.179 68.5685ZM134.687 86.8601C133.024 88.7182 130.615 89.6986 127.709 89.6986H125.498V91.8028C125.498 114.543 94.9205 128.506 72.9977 128.506C51.0726 128.506 20.4925 114.545 20.4925 91.8028V89.6986H18.2911C15.3916 89.6986 12.9757 88.7182 11.3173 86.8601C9.82991 85.2033 8.979 82.8508 8.979 80.4147C8.979 76.0564 11.5728 71.6574 17.3649 71.6574H19.1078L19.5138 70.0391C19.5845 69.7501 21.2909 62.7974 22.2239 48.117C22.5 43.733 24.5577 42.1789 30.0737 42.1789C33.945 42.1789 38.9843 43.0137 44.8174 43.9791C52.722 45.2913 62.5701 46.9225 73 46.9225C83.4344 46.9225 93.2826 45.2913 101.189 43.9813C107.018 43.0137 112.057 42.181 115.929 42.181C121.445 42.181 123.498 43.7351 123.778 48.1191C124.714 62.7952 126.411 69.7501 126.488 70.037L126.89 71.6596H128.637C134.43 71.6596 137.023 76.0585 137.023 80.4169C137.021 82.8508 136.17 85.2033 134.687 86.8601Z" fill="black"/>
<path d="M101.511 64.2188C95.2057 64.2188 90.1094 69.0073 90.1094 74.9219C90.1094 80.8364 95.2057 85.625 101.511 85.625C104.536 85.625 107.437 84.4974 109.577 82.4901C111.716 80.4829 112.917 77.7605 112.917 74.9219C112.917 72.0832 111.716 69.3608 109.577 67.3536C107.437 65.3464 104.536 64.2188 101.511 64.2188Z" fill="black"/>
<path d="M44.4844 85.625C50.7839 85.625 55.8906 80.833 55.8906 74.9219C55.8906 69.0107 50.7839 64.2188 44.4844 64.2188C38.1849 64.2188 33.0781 69.0107 33.0781 74.9219C33.0781 80.833 38.1849 85.625 44.4844 85.625Z" fill="black"/>
<path d="M91.4553 101.951C79.5586 109.658 66.3661 109.61 54.5447 101.951C53.1235 101.027 51.8391 102.623 52.8018 104.105C56.4039 109.61 63.6788 114.523 73 114.523C82.3166 114.523 89.5961 109.61 93.1936 104.105C94.1632 102.623 92.8811 101.027 91.4553 101.951Z" fill="black"/>
</g>
</svg>
