<svg width="45" height="45" viewBox="0 0 45 45" fill="none" xmlns="http://www.w3.org/2000/svg">
<rect width="45" height="45" rx="3" fill="white"/>
<g clip-path="url(#clip0_68_290)">
<path d="M23 8C22.388 8 21.801 8.23503 21.3682 8.65338C20.9354 9.07173 20.6923 9.63913 20.6923 10.2308V21.3846C20.6923 21.9763 20.9354 22.5437 21.3682 22.962C21.801 23.3804 22.388 23.6154 23 23.6154C23.612 23.6154 24.199 23.3804 24.6318 22.962C25.0646 22.5437 25.3077 21.9763 25.3077 21.3846V10.2308C25.3077 9.63913 25.0646 9.07173 24.6318 8.65338C24.199 8.23503 23.612 8 23 8ZM14.7431 10.8933C14.4102 10.934 14.0967 11.0673 13.8408 11.277C12.0862 12.6146 10.6684 14.3196 9.69423 16.2636C8.72009 18.2076 8.21497 20.3399 8.21692 22.5C8.21692 30.3724 14.8538 36.7914 23 36.7914C31.1462 36.7914 37.7842 30.3724 37.7842 22.5C37.7842 17.957 35.5896 13.8926 32.1592 11.2759C31.9816 11.1386 31.7778 11.0364 31.5594 10.9752C31.341 10.9141 31.1122 10.8951 30.8862 10.9194C30.6602 10.9436 30.4413 11.0107 30.2421 11.1168C30.0429 11.2228 29.8672 11.3658 29.7252 11.5374C29.5831 11.7091 29.4775 11.9061 29.4142 12.1173C29.3509 12.3284 29.3312 12.5496 29.3564 12.7681C29.3815 12.9866 29.4509 13.1981 29.5606 13.3907C29.6703 13.5832 29.8182 13.753 29.9958 13.8903C31.3454 14.9141 32.4363 16.2213 33.186 17.713C33.9356 19.2046 34.3243 20.8416 34.3227 22.5C34.3262 23.9383 34.0357 25.3631 33.4679 26.6926C32.9002 28.022 32.0663 29.23 31.0142 30.247C29.9621 31.2641 28.7125 32.0701 27.3371 32.619C25.9618 33.1679 24.4879 33.4487 23 33.4453C21.5121 33.4487 20.0382 33.1679 18.6629 32.619C17.2875 32.0701 16.038 31.2641 14.9858 30.247C13.9337 29.23 13.0998 28.022 12.5321 26.6926C11.9643 25.3631 11.6738 23.9383 11.6773 22.5C11.6757 20.8416 12.0644 19.2046 12.814 17.713C13.5637 16.2213 14.6546 14.9141 16.0042 13.8903C16.3098 13.6685 16.5308 13.3551 16.6328 12.9991C16.7348 12.643 16.712 12.2644 16.568 11.9222C16.424 11.58 16.1669 11.2935 15.8368 11.1074C15.5067 10.9213 15.1221 10.846 14.7431 10.8933Z" fill="#FF0D0D"/>
</g>
<defs>
<clipPath id="clip0_68_290">
<rect width="30" height="29" fill="white" transform="translate(8 8)"/>
</clipPath>
</defs>
</svg>
