<svg width="125" height="118" viewBox="0 0 125 118" fill="none" xmlns="http://www.w3.org/2000/svg">
<g opacity="0.15">
<path d="M71.6145 63.9163C71.6145 62.2864 72.3005 60.7232 73.5214 59.5706C74.7423 58.418 76.3983 57.7705 78.125 57.7705C79.8516 57.7705 81.5076 58.418 82.7285 59.5706C83.9495 60.7232 84.6354 62.2864 84.6354 63.9163C84.6354 65.5463 83.9495 67.1095 82.7285 68.2621C81.5076 69.4147 79.8516 70.0622 78.125 70.0622C76.3983 70.0622 74.7423 69.4147 73.5214 68.2621C72.3005 67.1095 71.6145 65.5463 71.6145 63.9163ZM114.583 58.9997V108.166H10.4166V58.9997C10.4166 31.958 33.8541 9.83301 62.5 9.83301C91.1458 9.83301 114.583 31.958 114.583 58.9997ZM20.8333 58.9997C20.8333 80.6822 39.5312 98.333 62.5 98.333C85.4687 98.333 104.167 80.6822 104.167 58.9997C104.167 55.1155 103.542 51.3788 102.448 47.888C92.3789 50.0988 81.84 49.4222 72.1808 45.9449C62.5215 42.4675 54.1817 36.3476 48.2291 28.3688C43.125 40.1197 33.3854 49.6088 21.0937 54.7713C20.8333 56.148 20.8333 57.5738 20.8333 58.9997ZM46.875 70.0622C48.6016 70.0622 50.2576 69.4147 51.4785 68.2621C52.6995 67.1095 53.3854 65.5463 53.3854 63.9163C53.3854 62.2864 52.6995 60.7232 51.4785 59.5706C50.2576 58.418 48.6016 57.7705 46.875 57.7705C45.1483 57.7705 43.4923 58.418 42.2714 59.5706C41.0505 60.7232 40.3645 62.2864 40.3645 63.9163C40.3645 65.5463 41.0505 67.1095 42.2714 68.2621C43.4923 69.4147 45.1483 70.0622 46.875 70.0622Z" fill="black"/>
</g>
</svg>
