<svg width="125" height="115" viewBox="0 0 125 115" fill="none" xmlns="http://www.w3.org/2000/svg">
<g opacity="0.15">
<path d="M91.7656 20.7036C91.7675 20.6317 91.7871 20.5634 91.7871 20.4916C91.7871 11.1568 78.664 3.59375 62.4824 3.59375C46.3007 3.59375 33.1757 11.1568 33.1757 20.4916C33.1757 20.5616 33.1953 20.6281 33.1953 20.6982C2.82222 31.413 -2.74419 58.3787 11.041 71.0251L11.1054 81.7183C11.1074 96.4958 27.2441 111.406 63.3027 111.406C95.4062 111.406 113.82 100.587 113.82 81.7183L113.811 71.176C127.799 58.5889 122.264 31.4615 91.7656 20.7036ZM98.2011 70.2291C98.2011 76.1821 92.9648 81.0103 86.5097 81.0103C80.0546 81.0103 74.8203 76.1821 74.8203 70.2291C74.8203 64.276 80.0546 59.4478 86.5097 59.4478C92.9648 59.4478 98.2011 64.276 98.2011 70.2291ZM62.4824 10.6806C73.6386 10.6806 83.3144 14.2834 88.2617 19.5752C80.9609 17.4333 72.4101 16.1629 62.4824 16.1629C51.6582 16.1629 38.8828 18.9319 36.705 19.5698C41.6562 14.2816 51.33 10.6806 62.4824 10.6806ZM44.6953 49.813C49.8652 48.0071 59.0839 44.6991 63.0742 42.9884C67.8418 45.177 73.5234 47.4555 80.2714 49.813C83.9636 51.1051 87.5205 52.7031 90.8984 54.5873C89.4663 54.2413 87.9923 54.0632 86.5117 54.0572C79.3007 54.0572 73.1093 58.075 70.416 63.816C65.1959 63.5791 59.9636 63.7281 54.7695 64.2616C52.1933 58.287 45.8769 54.0572 38.4804 54.0572C36.9453 54.0572 35.4668 54.2566 34.0488 54.598C37.432 52.7083 40.9956 51.1066 44.6953 49.813ZM38.4804 59.4478C44.9375 59.4478 50.1718 64.276 50.1718 70.2291C50.1718 76.1821 44.9355 81.0103 38.4804 81.0103C32.0253 81.0103 26.7929 76.1821 26.7929 70.2291C26.7929 64.276 32.0273 59.4478 38.4804 59.4478ZM63.3027 107.872C29.9453 107.872 15.0136 94.7348 15.0136 81.7075L14.9453 70.4429C16.5996 68.398 19.4414 65.2391 23.5097 61.8466C21.8359 64.3709 20.95 67.2704 20.9492 70.2273C20.9492 79.1595 28.8007 86.3991 38.4804 86.3991C48.164 86.3991 56.0175 79.1595 56.0175 70.2273C56.0175 70.0045 55.9902 69.787 55.9804 69.5678C60.3158 69.145 64.6784 69.0069 69.0351 69.1545C69.0097 69.5121 68.9765 69.8661 68.9765 70.2291C68.9765 79.1613 76.83 86.4009 86.5136 86.4009C96.1933 86.4009 104.049 79.1613 104.049 70.2291C104.048 67.2821 103.167 64.392 101.504 61.8736C104.58 64.4241 107.392 67.2314 109.904 70.2596L109.916 81.7201C109.912 98.3394 92.9257 107.872 63.3027 107.872Z" fill="black"/>
<path d="M74.5273 88.8065C74.5723 89.9062 74.998 90.9412 75.6348 91.8702C73.582 92.5763 68.4746 94.0893 62.3672 94.0893C56.2969 94.0893 51.1836 92.5979 49.0879 91.8827C49.7285 90.9519 50.1602 89.9116 50.2051 88.8047C48.6895 90.2673 47.3555 91.4623 45.8301 92.6159C44.332 93.7856 42.7402 94.8386 41.0898 96.1719C42.2148 96.1773 43.2871 95.9041 44.291 95.5214C45.3066 95.1387 46.2383 94.5996 47.0937 93.9653C47.3529 93.7641 47.6029 93.549 47.8438 93.3202C48.75 96.1467 54.8984 99.2481 62.3691 99.2481C69.8203 99.2481 75.9629 96.1413 76.8887 93.3148C77.1309 93.5448 77.3828 93.7617 77.6445 93.9653C78.5 94.6014 79.4297 95.1387 80.4434 95.5214C81.4512 95.9041 82.5195 96.1773 83.6484 96.1719C81.9961 94.8404 80.4043 93.7874 78.9063 92.6159C77.375 91.4641 76.0449 90.2691 74.5273 88.8065Z" fill="black"/>
</g>
</svg>
