<svg width="133" height="126" viewBox="0 0 133 126" fill="none" xmlns="http://www.w3.org/2000/svg">
<g opacity="0.15">
<path d="M126.427 72.7355L127.462 61.9664C127.462 47.6674 124.555 36.2289 113.906 28.7083C108.079 17.6656 95.0929 3.93947 66.4875 3.9375C37.8967 3.9375 24.9167 17.6656 19.0938 28.7103C8.4455 36.2289 5.5382 47.6693 5.5382 61.9684L6.57311 72.7374C5.13713 74.0821 4.15625 76.169 4.15625 79.2343C4.15625 87.4558 9.23103 88.5603 11.3133 88.6666C12.3482 105.041 29.7193 122.062 66.5021 122.062C105.556 122.062 120.637 102.653 121.683 88.6686C122.959 88.6134 124.665 88.2472 126.126 86.942C127.931 85.3315 128.844 82.7367 128.844 79.2343C128.844 76.169 127.863 74.0821 126.427 72.7355ZM123.995 84.8118C122.599 86.056 120.556 85.682 120.55 85.6839L118.64 85.2508V87.1073C118.64 99.979 104.754 119.133 66.5021 119.133C28.25 119.133 14.3661 99.981 14.3661 87.1093L14.3515 85.2882L12.4688 85.682C12.2097 85.7272 11.9466 85.7489 11.6832 85.7469C8.02364 85.7469 7.25473 82.2052 7.25473 79.2343C7.25473 74.6274 9.85031 73.6608 12.0261 73.6608C12.2443 73.6608 12.3898 73.6746 12.4147 73.6765L12.8096 73.7238L13.1836 73.5879C17.9072 71.8318 21.0618 69.1523 22.5622 65.6263C25.4633 58.7928 21.4275 50.5299 19.0148 45.5903C18.4018 44.3343 17.7659 43.0388 17.5996 42.4246C18.0631 39.1584 23.7363 6.86503 66.5021 6.86503C109.262 6.86897 114.941 39.1525 115.402 42.4246C115.234 43.0408 114.602 44.3363 113.987 45.5903C111.575 50.528 107.535 58.7928 110.438 65.6263C111.936 69.1523 115.091 71.8318 119.816 73.5879L120.19 73.7198L120.577 73.6785C120.709 73.6666 120.841 73.6607 120.974 73.6608C123.15 73.6608 125.745 74.6274 125.745 79.2343C125.745 81.8626 125.138 83.7939 123.995 84.8118Z" fill="black"/>
<path d="M66.5021 91.3957C56.4273 91.3957 48.2624 95.7802 48.2624 100.722C48.2624 101.385 48.4161 103.041 48.7008 103.041H54.8542L56.0699 100.283L57.1588 103.041H84.2264C84.5547 103.041 84.7376 101.312 84.7376 100.594C84.7376 95.6542 76.5747 91.3957 66.5021 91.3957ZM66.6392 18.3669C71.4799 18.1925 76.3271 18.2687 81.1591 18.5953C86.0073 18.93 90.8411 19.5541 95.7953 20.314C91.3876 18.0421 86.5414 16.538 81.5872 15.6264C76.6267 14.6834 71.5436 14.4019 66.4979 14.5318C61.4709 14.7232 56.4725 15.3466 51.5645 16.3942C46.6601 17.3885 41.9615 18.8985 37.2067 20.314C42.2545 20.4617 47.19 19.7529 52.0653 19.3415C56.951 18.9083 61.7951 18.4851 66.6392 18.3669ZM66.6143 26.4565C72.5167 26.2804 78.4245 26.3553 84.3199 26.681C90.2301 27.0157 96.1257 27.6358 102.115 28.4056C96.5767 26.0962 90.6644 24.6059 84.6669 23.7003C78.6653 22.7651 72.566 22.4895 66.4979 22.6194C60.4417 22.8076 54.4091 23.4283 48.4515 24.476C42.4997 25.4643 36.7163 26.9822 30.8851 28.4036C36.9573 28.5532 42.9361 27.8504 48.8671 27.435C54.8043 26.9999 60.7082 26.5766 66.6143 26.4565ZM90.3174 55.3853C86.9259 55.3835 83.6078 56.3211 80.7714 58.0826C77.935 59.8442 75.7041 62.3529 74.3532 65.3C68.8025 65.0184 63.5823 65.2665 58.8379 65.7528C57.5511 62.6915 55.3239 60.0666 52.4448 58.2179C49.5656 56.3691 46.167 55.3817 42.6888 55.3834C33.092 55.3834 25.3032 62.7347 25.3032 71.8126C25.3032 80.8846 33.092 88.2438 42.6888 88.2438C52.2877 88.2438 60.0786 80.8866 60.0786 71.8126C60.0786 71.5901 60.0495 71.3677 60.0412 71.1432C64.0519 70.7554 68.3994 70.5526 72.9858 70.7239C72.9546 71.0842 72.9235 71.4425 72.9235 71.8126C72.9235 80.8846 80.7123 88.2438 90.3153 88.2438C99.91 88.2438 107.697 80.8866 107.697 71.8126C107.699 62.7367 99.9121 55.3853 90.3174 55.3853ZM42.6888 82.7647C36.2882 82.7647 31.0991 77.8645 31.0991 71.8126C31.0991 65.7607 36.2882 60.8585 42.6888 60.8585C49.0894 60.8585 54.2806 65.7607 54.2806 71.8126C54.2806 77.8645 49.0894 82.7647 42.6888 82.7647ZM90.3132 82.7647C83.9126 82.7647 78.7214 77.8645 78.7214 71.8126C78.7214 65.7607 83.9126 60.8585 90.3132 60.8585C96.7138 60.8585 101.905 65.7607 101.905 71.8126C101.905 77.8645 96.7138 82.7647 90.3132 82.7647Z" fill="black"/>
</g>
</svg>
