<svg width="31" height="29" viewBox="0 0 31 29" fill="none" xmlns="http://www.w3.org/2000/svg">
<path d="M7.82769 21.6775C7.67965 21.5438 7.56157 21.3838 7.48033 21.2069C7.3991 21.03 7.35634 20.8397 7.35455 20.6472C7.35276 20.4546 7.39198 20.2637 7.46991 20.0855C7.54785 19.9073 7.66294 19.7454 7.80848 19.6093C7.95401 19.4731 8.12707 19.3655 8.31756 19.2926C8.50805 19.2197 8.71215 19.183 8.91796 19.1846C9.12377 19.1863 9.32716 19.2263 9.51627 19.3023C9.70537 19.3783 9.87641 19.4888 10.0194 19.6272C11.1033 20.6415 12.4843 21.3322 13.9878 21.612C15.4914 21.8919 17.0499 21.7483 18.4662 21.1995C19.8825 20.6506 21.093 19.7211 21.9445 18.5286C22.7961 17.3361 23.2505 15.9342 23.2502 14.5C23.2502 14.1155 23.4135 13.7467 23.7042 13.4747C23.9949 13.2028 24.3891 13.05 24.8002 13.05C25.2113 13.05 25.6055 13.2028 25.8962 13.4747C26.1869 13.7467 26.3502 14.1155 26.3502 14.5C26.3503 16.5076 25.7141 18.4702 24.5219 20.1395C23.3297 21.8088 21.6351 23.1098 19.6524 23.8781C17.6697 24.6464 15.488 24.8474 13.3832 24.4557C11.2784 24.064 9.34509 23.0972 7.82769 21.6775Z" fill="#F8F8F8"/>
<path d="M21.0167 18.6064C20.8473 18.7121 20.6574 18.7855 20.4577 18.8225C20.258 18.8595 20.0524 18.8594 19.8528 18.8221C19.6532 18.7848 19.4633 18.7111 19.2942 18.6051C19.125 18.4992 18.9798 18.3632 18.8668 18.2047C18.6386 17.8848 18.5557 17.4931 18.6362 17.116C18.7167 16.7388 18.9541 16.407 19.2962 16.1936L23.9462 13.2936C24.1155 13.1879 24.3054 13.1145 24.5051 13.0775C24.7048 13.0404 24.9104 13.0406 25.11 13.0779C25.3096 13.1152 25.4995 13.1889 25.6686 13.2948C25.8378 13.4007 25.983 13.5368 26.096 13.6952C26.209 13.8537 26.2875 14.0314 26.327 14.2182C26.3666 14.405 26.3664 14.5972 26.3266 14.784C26.2867 14.9707 26.2079 15.1483 26.0947 15.3066C25.9814 15.4649 25.836 15.6007 25.6667 15.7064L21.0167 18.6064Z" fill="#F8F8F8"/>
<path d="M29.1896 18.0453C29.4178 18.3653 29.5007 18.7569 29.4202 19.1341C29.3397 19.5113 29.1023 19.843 28.7603 20.0565C28.4182 20.2699 27.9996 20.3475 27.5964 20.2722C27.1932 20.1969 26.8386 19.9748 26.6104 19.6548L23.5104 15.3048C23.3974 15.1464 23.3189 14.9687 23.2794 14.7819C23.2398 14.5951 23.24 14.4028 23.2798 14.2161C23.3604 13.8389 23.5977 13.5071 23.9398 13.2937C24.2818 13.0802 24.7004 13.0027 25.1036 13.078C25.5068 13.1533 25.8615 13.3754 26.0896 13.6953L29.1896 18.0453ZM23.0284 7.03403C23.1764 7.16779 23.2945 7.32779 23.3757 7.50469C23.457 7.6816 23.4997 7.87187 23.5015 8.0644C23.5033 8.25693 23.4641 8.44786 23.3861 8.62606C23.3082 8.80426 23.1931 8.96616 23.0476 9.1023C22.902 9.23845 22.729 9.34611 22.5385 9.41902C22.348 9.49193 22.1439 9.52861 21.9381 9.52694C21.7323 9.52527 21.5289 9.48527 21.3398 9.40928C21.1507 9.33328 20.9796 9.22282 20.8367 9.08433C19.7528 8.07012 18.3717 7.37941 16.8682 7.09956C15.3647 6.8197 13.8062 6.96328 12.3899 7.51213C10.9736 8.06097 9.76307 8.99043 8.91151 10.1829C8.05995 11.3754 7.60557 12.7774 7.60586 14.2115C7.60586 14.5961 7.44256 14.9649 7.15187 15.2368C6.86119 15.5088 6.46695 15.6615 6.05586 15.6615C5.64477 15.6615 5.25053 15.5088 4.95984 15.2368C4.66916 14.9649 4.50586 14.5961 4.50586 14.2115C4.5057 12.2039 5.14196 10.2414 6.33416 8.57211C7.52637 6.90281 9.22096 5.60175 11.2036 4.83346C13.1863 4.06517 15.368 3.86416 17.4728 4.25587C19.5776 4.64757 21.511 5.61438 23.0284 7.03403Z" fill="#F8F8F8"/>
<path d="M9.84101 10.1051C10.183 9.89168 10.6017 9.81409 11.0049 9.88942C11.408 9.96474 11.7627 10.1868 11.9909 10.5068C12.219 10.8267 12.302 11.2184 12.2214 11.5955C12.1409 11.9727 11.9035 12.3045 11.5615 12.5179L6.90996 15.4179C6.74061 15.5236 6.55066 15.597 6.35097 15.634C6.15128 15.6711 5.94575 15.6709 5.74611 15.6336C5.54648 15.5963 5.35666 15.5226 5.18748 15.4167C5.0183 15.3108 4.87308 15.1747 4.76011 15.0163C4.53196 14.6963 4.44902 14.3047 4.52954 13.9275C4.61006 13.5503 4.84744 13.2185 5.18946 13.0051L9.84101 10.1051Z" fill="#F8F8F8"/>
<path d="M1.66635 10.6663C1.55339 10.5079 1.47488 10.3302 1.43532 10.1434C1.39575 9.95657 1.39591 9.7643 1.43578 9.57755C1.47565 9.3908 1.55445 9.21322 1.66768 9.05495C1.78091 8.89669 1.92635 8.76084 2.0957 8.65516C2.26506 8.54948 2.455 8.47603 2.6547 8.43902C2.85439 8.40202 3.05992 8.40216 3.25955 8.43946C3.45918 8.47676 3.64901 8.55047 3.81819 8.6564C3.98737 8.76232 4.13259 8.89838 4.24555 9.05681L7.34555 13.4068C7.45852 13.5652 7.53703 13.7429 7.57659 13.9297C7.61616 14.1165 7.616 14.3088 7.57613 14.4956C7.53626 14.6823 7.45746 14.8599 7.34423 15.0182C7.231 15.1764 7.08556 15.3123 6.9162 15.418C6.74685 15.5236 6.55691 15.5971 6.35721 15.6341C6.15752 15.6711 5.95199 15.671 5.75236 15.6337C5.55273 15.5964 5.3629 15.5226 5.19372 15.4167C5.02454 15.3108 4.87932 15.1747 4.76635 15.0163L1.66635 10.6663Z" fill="#F8F8F8"/>
</svg>
