<svg width="31" height="29" viewBox="0 0 31 29" fill="none" xmlns="http://www.w3.org/2000/svg">
<path d="M25.1875 7.25H29.0625V29H3.875V7.25H7.75V5.4375H9.6875V7.25H23.25V5.4375H25.1875V7.25ZM27.125 9.0625H25.1875V10.875H27.125V9.0625ZM23.25 9.0625H9.6875V10.875H23.25V9.0625ZM7.75 9.0625H5.8125V10.875H7.75V9.0625ZM5.8125 27.1875H27.125V12.6875H5.8125V27.1875ZM3.875 5.4375V3.625H1.9375V23.5625H0V1.8125H3.875V0H5.8125V1.8125H19.375V0H21.3125V1.8125H25.1875V3.625H21.3125V5.4375H19.375V3.625H5.8125V5.4375H3.875ZM9.6875 19.9375V18.125H11.625V19.9375H9.6875ZM13.5625 19.9375V18.125H15.5V19.9375H13.5625ZM17.4375 19.9375V18.125H19.375V19.9375H17.4375ZM21.3125 19.9375V18.125H23.25V19.9375H21.3125ZM9.6875 23.5625V21.75H11.625V23.5625H9.6875ZM13.5625 23.5625V21.75H15.5V23.5625H13.5625ZM17.4375 23.5625V21.75H19.375V23.5625H17.4375ZM13.5625 16.3125V14.5H15.5V16.3125H13.5625ZM17.4375 16.3125V14.5H19.375V16.3125H17.4375ZM21.3125 16.3125V14.5H23.25V16.3125H21.3125Z" fill="#F8F8F8"/>
</svg>
