<svg width="27" height="24" viewBox="0 0 27 24" fill="none" xmlns="http://www.w3.org/2000/svg">
<path d="M15.1875 3.375C15.1875 2.87772 15.0097 2.40081 14.6932 2.04917C14.3768 1.69754 13.9476 1.5 13.5 1.5C13.0524 1.5 12.6232 1.69754 12.3068 2.04917C11.9903 2.40081 11.8125 2.87772 11.8125 3.375C11.8125 3.87228 11.9903 4.34919 12.3068 4.70083C12.6232 5.05246 13.0524 5.25 13.5 5.25C13.9476 5.25 14.3768 5.05246 14.6932 4.70083C15.0097 4.34919 15.1875 3.87228 15.1875 3.375ZM6.075 9.75C6.52255 9.75 6.95178 9.55246 7.26824 9.20083C7.58471 8.84919 7.7625 8.37228 7.7625 7.875C7.7625 7.37772 7.58471 6.90081 7.26824 6.54917C6.95178 6.19754 6.52255 6 6.075 6C5.62745 6 5.19823 6.19754 4.88176 6.54917C4.56529 6.90081 4.3875 7.37772 4.3875 7.875C4.3875 8.37228 4.56529 8.84919 4.88176 9.20083C5.19823 9.55246 5.62745 9.75 6.075 9.75ZM1.35 19.5C0.603281 19.5 0 20.1703 0 21C0 21.8297 0.603281 22.5 1.35 22.5H25.65C26.3967 22.5 27 21.8297 27 21C27 20.1703 26.3967 19.5 25.65 19.5H1.35ZM20.925 9.75C21.3726 9.75 21.8018 9.55246 22.1182 9.20083C22.4347 8.84919 22.6125 8.37228 22.6125 7.875C22.6125 7.37772 22.4347 6.90081 22.1182 6.54917C21.8018 6.19754 21.3726 6 20.925 6C20.4774 6 20.0482 6.19754 19.7318 6.54917C19.4153 6.90081 19.2375 7.37772 19.2375 7.875C19.2375 8.37228 19.4153 8.84919 19.7318 9.20083C20.0482 9.55246 20.4774 9.75 20.925 9.75ZM8.4375 14.6953L9.57234 17.0344C9.83813 17.5828 10.4498 17.7844 10.9434 17.4938C11.437 17.2031 11.6184 16.5188 11.3569 15.9703L9.82547 12.8063C9.89719 12.7266 9.96047 12.6375 10.0069 12.5344L11.1375 10.1953V12.75C11.1375 13.5797 11.7408 14.25 12.4875 14.25H14.5125C15.2592 14.25 15.8625 13.5797 15.8625 12.75V10.1953L16.9973 12.5344C17.048 12.6375 17.107 12.7266 17.1788 12.8063L15.6473 15.9703C15.3816 16.5188 15.5672 17.1984 16.0608 17.4938C16.5544 17.7891 17.1661 17.5828 17.4319 17.0344L18.5625 14.6953V16.5C18.5625 17.3297 19.1658 18 19.9125 18H21.9375C22.6842 18 23.2875 17.3297 23.2875 16.5V14.6953L24.4223 17.0344C24.6881 17.5828 25.2998 17.7844 25.7934 17.4938C26.287 17.2031 26.4684 16.5188 26.2069 15.9703L24.608 12.675C23.9625 11.3391 22.7053 10.5047 21.3384 10.5047H20.5158C19.8281 10.5047 19.17 10.7156 18.6005 11.0953L17.183 8.175C16.5375 6.83906 15.2803 6.00469 13.9134 6.00469H13.0908C11.7239 6.00469 10.4709 6.83906 9.82125 8.175L8.40375 11.0953C7.83422 10.7156 7.17609 10.5047 6.48844 10.5047H5.66578C4.29891 10.5047 3.04594 11.3391 2.39625 12.675L0.797344 15.9656C0.531563 16.5141 0.717188 17.1938 1.21078 17.4891C1.70438 17.7844 2.31609 17.5781 2.58188 17.0297L3.7125 14.6953V16.5C3.7125 17.3297 4.31578 18 5.0625 18H7.0875C7.83422 18 8.4375 17.3297 8.4375 16.5V14.6953Z" fill="white"/>
</svg>
