<svg width="31" height="29" viewBox="0 0 31 29" fill="none" xmlns="http://www.w3.org/2000/svg">
<path d="M16.7917 12.084H14.2084V9.66732H16.7917V12.084ZM16.7917 7.25065H14.2084V1.20898H16.7917V7.25065ZM9.04169 21.7507C7.62085 21.7507 6.47127 22.8382 6.47127 24.1673C6.47127 25.4965 7.62085 26.584 9.04169 26.584C10.4625 26.584 11.625 25.4965 11.625 24.1673C11.625 22.8382 10.4625 21.7507 9.04169 21.7507ZM21.9584 21.7507C20.5375 21.7507 19.3879 22.8382 19.3879 24.1673C19.3879 25.4965 20.5375 26.584 21.9584 26.584C23.3792 26.584 24.5417 25.4965 24.5417 24.1673C24.5417 22.8382 23.3792 21.7507 21.9584 21.7507ZM10.4625 15.709H20.0854C21.0542 15.709 21.9067 15.2136 22.3459 14.4644L27.125 5.99398L24.8646 4.83398L20.0854 13.2923H11.0179L5.51544 2.41732H1.29169V4.83398H3.87502L8.52502 14.0052L6.78127 16.9536C5.83835 18.5727 7.07835 20.5423 9.04169 20.5423H24.5417V18.1257H9.04169L10.4625 15.709Z" fill="#F8F8F8"/>
</svg>
