<svg width="31" height="29" viewBox="0 0 31 29" fill="none" xmlns="http://www.w3.org/2000/svg">
<path d="M23.4824 9.71505L24.0805 9.15439C24.5566 8.70877 25.2025 8.45837 25.8761 8.45825C26.5496 8.45814 27.1956 8.70833 27.6719 9.15378C28.1483 9.59923 28.416 10.2035 28.4161 10.8335C28.4162 11.4636 28.1488 12.0679 27.6726 12.5136L27.0746 13.0742M23.4824 9.71505C23.4824 9.71505 23.5573 10.9041 24.6798 11.9541C25.8023 13.0041 27.0746 13.0742 27.0746 13.0742M23.4824 9.71505L17.9799 14.8626C17.6053 15.2106 17.4193 15.3858 17.2592 15.5779C17.0697 15.8051 16.9087 16.0491 16.7761 16.3101C16.6637 16.5301 16.5811 16.7633 16.4144 17.2309L15.881 18.7292L15.7079 19.2138M27.0746 13.0742L21.5721 18.2217C21.1975 18.5721 21.0115 18.7461 20.8061 18.896C20.5633 19.0732 20.3023 19.2238 20.0233 19.3479C19.7883 19.453 19.539 19.5303 19.0391 19.6862L17.4374 20.1853L16.9195 20.3472M15.7079 19.2138L15.5361 19.6995C15.4961 19.8123 15.4904 19.9332 15.5196 20.0488C15.5489 20.1644 15.6119 20.2701 15.7017 20.3541C15.7915 20.4381 15.9045 20.4971 16.0281 20.5245C16.1517 20.5519 16.281 20.5465 16.4015 20.5091L16.9195 20.3472M15.7079 19.2138L16.9195 20.3472" stroke="#F8F8F8" stroke-width="1.5"/>
<path d="M10.3333 15.7084H13.5625M10.3333 10.8751H18.7292M10.3333 20.5417H12.2708M25.6112 3.83291C24.0986 2.41675 21.6625 2.41675 16.7917 2.41675H14.2083C9.33746 2.41675 6.90138 2.41675 5.38883 3.83291C3.87629 5.24908 3.875 7.52679 3.875 12.0834V16.9167C3.875 21.4734 3.875 23.7523 5.38883 25.1672C6.90267 26.5822 9.33746 26.5834 14.2083 26.5834H16.7917C21.6625 26.5834 24.0986 26.5834 25.6112 25.1672C26.8305 24.0278 27.0669 22.3301 27.1134 19.3334" stroke="#F8F8F8" stroke-width="1.5" stroke-linecap="round"/>
</svg>
