<svg width="27" height="26" viewBox="0 0 27 26" fill="none" xmlns="http://www.w3.org/2000/svg">
<path d="M21.375 3.25H20.25C19.0074 3.25 18 4.22005 18 5.41667V20.5833C18 21.78 19.0074 22.75 20.25 22.75H21.375C22.6176 22.75 23.625 21.78 23.625 20.5833V5.41667C23.625 4.22005 22.6176 3.25 21.375 3.25Z" fill="white"/>
<path d="M14.0625 9.75H12.9375C11.6949 9.75 10.6875 10.72 10.6875 11.9167V20.5833C10.6875 21.78 11.6949 22.75 12.9375 22.75H14.0625C15.3051 22.75 16.3125 21.78 16.3125 20.5833V11.9167C16.3125 10.72 15.3051 9.75 14.0625 9.75Z" fill="white"/>
<path d="M6.75 17.3333H5.625C4.38236 17.3333 3.375 18.3033 3.375 19.4999V20.5833C3.375 21.7799 4.38236 22.7499 5.625 22.7499H6.75C7.99264 22.7499 9 21.7799 9 20.5833V19.4999C9 18.3033 7.99264 17.3333 6.75 17.3333Z" fill="white"/>
</svg>
