<svg width="27" height="27" viewBox="0 0 27 27" fill="none" xmlns="http://www.w3.org/2000/svg">
<path d="M26.0421 9.52458C27.6566 8.01416 26.9204 6.25 26.0421 5.39208L22.1671 1.76708C20.5396 0.256662 18.6666 0.945412 17.7496 1.76708L15.5537 3.83333H12.2083C9.75415 3.83333 8.33331 5.04166 7.60998 6.43125L1.87498 11.7962V16.6296L0.957896 17.4754C-0.656687 18.9979 0.0795629 20.75 0.957896 21.6079L4.8329 25.2329C5.5304 25.8854 6.27956 26.1271 6.98998 26.1271C7.90706 26.1271 8.74665 25.7042 9.2504 25.2329L12.7379 21.9583H17.375C19.5708 21.9583 20.6816 20.6775 21.0821 19.4208C22.5416 19.0583 23.3425 18.0192 23.6654 17.0042C25.6675 16.5208 26.4166 14.7446 26.4166 13.5V9.875H25.6546L26.0421 9.52458ZM23.8333 13.5C23.8333 14.0437 23.5879 14.7083 22.5416 14.7083H21.25V15.9167C21.25 16.4604 21.0046 17.125 19.9583 17.125H18.6666V18.3333C18.6666 18.8771 18.4212 19.5417 17.375 19.5417H11.6787L7.44206 23.505C7.04165 23.8554 6.80915 23.65 6.66706 23.5171L2.80498 19.9162C2.4304 19.5417 2.64998 19.3242 2.79206 19.1912L4.45831 17.6204V12.7871L7.04165 10.3704V12.2917C7.04165 13.7537 8.07498 15.9167 10.9166 15.9167C13.7583 15.9167 14.7916 13.7537 14.7916 12.2917H23.8333V13.5ZM24.2079 7.80875L22.0121 9.875H12.2083V12.2917C12.2083 12.8354 11.9629 13.5 10.9166 13.5C9.8704 13.5 9.62498 12.8354 9.62498 12.2917V8.66666C9.62498 8.11083 9.84456 6.25 12.2083 6.25H16.6129L19.5579 3.495C19.9583 3.14458 20.1908 3.35 20.3329 3.48291L24.195 7.08375C24.5696 7.45833 24.35 7.67583 24.2079 7.80875Z" fill="white"/>
</svg>
